PathFileType	4	(X/Y/Z)	 New Session 106.trc
DataRate	CameraRate	NumFrames	NumMarkers	Units	OrigDataRate	OrigDataStartFrame	OrigNumFrames
100	100	22	14	m	100	634	724
Frame#	Time	C7			T8			IJ			PX			AA			AC			AI			TS			SC			GH			LE			ME			US			RS			
		X1	Y1	Z1	X2	Y2	Z2	X3	Y3	Z3	X4	Y4	Z4	X5	Y5	Z5	X6	Y6	Z6	X7	Y7	Z7	X8	Y8	Z8	X9	Y9	Z9	X10	Y10	Z10	X11	Y11	Z11	X12	Y12	Z12	X13	Y13	Z13	X14	Y14	Z14	
634	6.3400	0.023037	0.104626	0.157619	0.021022	-0.109775	0.229190	0.007704	-0.000705	-0.007256	0.012696	-0.144318	-0.072853	0.213483	0.016697	0.155903	0.170760	0.054656	0.077629	0.097894	0.029895	0.201991	0.099293	-0.091456	0.233417	0.032162	0.008330	-0.002341	0.229354	0.028726	0.116950	0.307166	-0.258067	0.104968	0.222893	-0.306898	0.120078	0.292351	-0.370115	-0.145814	0.248379	-0.303136	-0.151010	
635	6.3500	0.023010	0.104623	0.157729	0.021026	-0.109811	0.229242	0.007692	-0.000737	-0.007175	0.012622	-0.144279	-0.072823	0.213461	0.016712	0.155931	0.170723	0.054670	0.077676	0.097881	0.029889	0.202062	0.099303	-0.091481	0.233485	0.032134	0.008342	-0.002282	0.229336	0.028734	0.116999	0.307112	-0.258021	0.105006	0.222961	-0.306909	0.120080	0.292486	-0.370148	-0.145726	0.248435	-0.303173	-0.150927	
636	6.3600	0.022987	0.104607	0.157838	0.021029	-0.109846	0.229291	0.007644	-0.000764	-0.007109	0.012540	-0.144246	-0.072809	0.213436	0.016722	0.155964	0.170686	0.054688	0.077729	0.097871	0.029862	0.202114	0.099307	-0.091508	0.233520	0.032110	0.008353	-0.002227	0.229317	0.028743	0.117043	0.307106	-0.257973	0.105054	0.223009	-0.306908	0.120165	0.292633	-0.370177	-0.145631	0.248503	-0.303206	-0.150849	
637	6.3700	0.022974	0.104576	0.157949	0.021034	-0.109882	0.229339	0.007592	-0.000779	-0.007039	0.012461	-0.144218	-0.072798	0.213419	0.016724	0.156009	0.170649	0.054708	0.077785	0.097864	0.029823	0.202165	0.099309	-0.091534	0.233541	0.032080	0.008369	-0.002173	0.229291	0.028755	0.117082	0.307150	-0.257929	0.105113	0.223050	-0.306892	0.120273	0.292788	-0.370195	-0.145537	0.248590	-0.303231	-0.150775	
638	6.3800	0.022973	0.104538	0.158050	0.021045	-0.109917	0.229389	0.007567	-0.000781	-0.006956	0.012390	-0.144186	-0.072784	0.213409	0.016722	0.156054	0.170615	0.054727	0.077845	0.097864	0.029790	0.202231	0.099308	-0.091561	0.233561	0.032038	0.008386	-0.002114	0.229259	0.028772	0.117119	0.307214	-0.257891	0.105188	0.223091	-0.306864	0.120373	0.292946	-0.370197	-0.145451	0.248682	-0.303251	-0.150703	
639	6.3900	0.022974	0.104489	0.158118	0.021062	-0.109953	0.229439	0.007572	-0.000773	-0.006864	0.012331	-0.144146	-0.072767	0.213399	0.016722	0.156095	0.170595	0.054743	0.077907	0.097872	0.029764	0.202294	0.099308	-0.091589	0.233586	0.031992	0.008403	-0.002049	0.229225	0.028789	0.117163	0.307274	-0.257853	0.105287	0.223134	-0.306834	0.120457	0.293106	-0.370189	-0.145372	0.248759	-0.303271	-0.150632	
640	6.4000	0.022971	0.104431	0.158150	0.021086	-0.109989	0.229490	0.007599	-0.000753	-0.006766	0.012282	-0.144104	-0.072750	0.213389	0.016724	0.156130	0.170585	0.054760	0.077966	0.097879	0.029742	0.202343	0.099309	-0.091620	0.233614	0.031959	0.008410	-0.001990	0.229194	0.028806	0.117208	0.307320	-0.257810	0.105418	0.223174	-0.306813	0.120528	0.293282	-0.370173	-0.145298	0.248819	-0.303292	-0.150565	
641	6.4100	0.022962	0.104384	0.158179	0.021118	-0.110026	0.229542	0.007628	-0.000728	-0.006672	0.012236	-0.144065	-0.072737	0.213382	0.016728	0.156159	0.170576	0.054776	0.078012	0.097881	0.029721	0.202390	0.099318	-0.091654	0.233635	0.031936	0.008406	-0.001936	0.229170	0.028823	0.117249	0.307342	-0.257765	0.105575	0.223214	-0.306800	0.120582	0.293468	-0.370156	-0.145223	0.248872	-0.303312	-0.150504	
642	6.4200	0.022949	0.104363	0.158235	0.021153	-0.110062	0.229593	0.007642	-0.000701	-0.006587	0.012186	-0.144027	-0.072725	0.213380	0.016737	0.156184	0.170560	0.054792	0.078045	0.097895	0.029702	0.202436	0.099332	-0.091689	0.233639	0.031912	0.008402	-0.001875	0.229150	0.028841	0.117279	0.307345	-0.257718	0.105734	0.223272	-0.306784	0.120596	0.293612	-0.370154	-0.145151	0.248928	-0.303334	-0.150451	
643	6.4300	0.022931	0.104370	0.158330	0.021189	-0.110099	0.229642	0.007638	-0.000678	-0.006512	0.012125	-0.143985	-0.072710	0.213383	0.016754	0.156204	0.170536	0.054807	0.078071	0.097918	0.029678	0.202488	0.099350	-0.091725	0.233622	0.031886	0.008406	-0.001807	0.229130	0.028862	0.117300	0.307357	-0.257669	0.105863	0.223366	-0.306754	0.120563	0.293655	-0.370176	-0.145084	0.248990	-0.303360	-0.150406	
644	6.4400	0.022914	0.104387	0.158454	0.021224	-0.110134	0.229688	0.007620	-0.000664	-0.006445	0.012060	-0.143946	-0.072686	0.213387	0.016780	0.156222	0.170506	0.054823	0.078097	0.097931	0.029658	0.202544	0.099371	-0.091759	0.233588	0.031859	0.008415	-0.001732	0.229109	0.028887	0.117315	0.307401	-0.257616	0.105950	0.223484	-0.306712	0.120523	0.293654	-0.370205	-0.145018	0.249058	-0.303392	-0.150367	
645	6.4500	0.022901	0.104388	0.158575	0.021255	-0.110168	0.229730	0.007597	-0.000657	-0.006381	0.012000	-0.143916	-0.072652	0.213386	0.016807	0.156239	0.170475	0.054842	0.078128	0.097944	0.029646	0.202580	0.099399	-0.091786	0.233556	0.031826	0.008432	-0.001658	0.229089	0.028912	0.117328	0.307479	-0.257559	0.106000	0.223589	-0.306665	0.120528	0.293719	-0.370224	-0.144950	0.249126	-0.303429	-0.150332	
646	6.4600	0.022890	0.104375	0.158675	0.021284	-0.110202	0.229768	0.007579	-0.000650	-0.006320	0.011950	-0.143900	-0.072618	0.213377	0.016827	0.156251	0.170444	0.054870	0.078159	0.097955	0.029640	0.202601	0.099438	-0.091801	0.233558	0.031787	0.008457	-0.001596	0.229070	0.028932	0.117342	0.307569	-0.257504	0.106028	0.223658	-0.306627	0.120572	0.293829	-0.370242	-0.144887	0.249187	-0.303469	-0.150301	
647	6.4700	0.022883	0.104364	0.158757	0.021311	-0.110236	0.229804	0.007571	-0.000638	-0.006263	0.011910	-0.143889	-0.072596	0.213372	0.016835	0.156258	0.170421	0.054913	0.078180	0.097962	0.029628	0.202636	0.099494	-0.091807	0.233610	0.031747	0.008481	-0.001549	0.229055	0.028945	0.117354	0.307643	-0.257458	0.106046	0.223695	-0.306603	0.120621	0.293924	-0.370269	-0.144837	0.249238	-0.303509	-0.150273	
648	6.4800	0.022879	0.104358	0.158823	0.021337	-0.110270	0.229838	0.007560	-0.000630	-0.006214	0.011878	-0.143871	-0.072590	0.213373	0.016839	0.156264	0.170401	0.054960	0.078189	0.097976	0.029616	0.202686	0.099559	-0.091809	0.233690	0.031695	0.008491	-0.001500	0.229040	0.028955	0.117363	0.307684	-0.257429	0.106058	0.223717	-0.306587	0.120651	0.293991	-0.370294	-0.144801	0.249277	-0.303547	-0.150250	
649	6.4900	0.022872	0.104350	0.158877	0.021362	-0.110304	0.229872	0.007534	-0.000627	-0.006175	0.011846	-0.143842	-0.072592	0.213369	0.016847	0.156269	0.170380	0.054982	0.078193	0.097998	0.029605	0.202720	0.099617	-0.091815	0.233763	0.031610	0.008481	-0.001434	0.229024	0.028967	0.117364	0.307690	-0.257419	0.106067	0.223737	-0.306578	0.120654	0.294053	-0.370311	-0.144770	0.249308	-0.303580	-0.150230	
650	6.5000	0.022864	0.104328	0.158915	0.021385	-0.110337	0.229904	0.007491	-0.000627	-0.006146	0.011810	-0.143807	-0.072596	0.213356	0.016854	0.156273	0.170350	0.054957	0.078201	0.098020	0.029594	0.202737	0.099657	-0.091829	0.233802	0.031506	0.008451	-0.001360	0.229007	0.028979	0.117357	0.307673	-0.257422	0.106075	0.223759	-0.306579	0.120635	0.294120	-0.370323	-0.144744	0.249333	-0.303607	-0.150215	
651	6.5100	0.022867	0.104285	0.158940	0.021402	-0.110370	0.229934	0.007443	-0.000624	-0.006121	0.011766	-0.143774	-0.072597	0.213344	0.016854	0.156264	0.170320	0.054921	0.078210	0.098034	0.029579	0.202750	0.099674	-0.091851	0.233793	0.031432	0.008419	-0.001308	0.228993	0.028990	0.117345	0.307653	-0.257425	0.106082	0.223777	-0.306582	0.120612	0.294184	-0.370329	-0.144727	0.249358	-0.303627	-0.150206	
652	6.5200	0.022886	0.104235	0.158965	0.021413	-0.110402	0.229963	0.007402	-0.000616	-0.006098	0.011711	-0.143749	-0.072591	0.213347	0.016854	0.156244	0.170297	0.054914	0.078211	0.098033	0.029558	0.202771	0.099670	-0.091881	0.233740	0.031411	0.008404	-0.001300	0.228983	0.028996	0.117329	0.307650	-0.257421	0.106089	0.223786	-0.306576	0.120605	0.294241	-0.370327	-0.144714	0.249388	-0.303642	-0.150203	
653	6.5300	0.022905	0.104203	0.159012	0.021416	-0.110434	0.229991	0.007376	-0.000606	-0.006075	0.011652	-0.143727	-0.072583	0.213361	0.016860	0.156223	0.170284	0.054947	0.078204	0.098035	0.029537	0.202792	0.099651	-0.091915	0.233659	0.031428	0.008413	-0.001323	0.228974	0.028998	0.117310	0.307672	-0.257407	0.106092	0.223783	-0.306563	0.120614	0.294291	-0.370322	-0.144701	0.249434	-0.303650	-0.150208	
654	6.5400	0.022917	0.104183	0.159061	0.021414	-0.110466	0.230017	0.007360	-0.000596	-0.006055	0.011596	-0.143699	-0.072577	0.213372	0.016869	0.156205	0.170272	0.054989	0.078194	0.098057	0.029518	0.202806	0.099627	-0.091954	0.233570	0.031440	0.008437	-0.001337	0.228965	0.028996	0.117288	0.307716	-0.257388	0.106086	0.223770	-0.306552	0.120625	0.294346	-0.370321	-0.144683	0.249499	-0.303649	-0.150221	
655	6.5500	0.022923	0.104154	0.159086	0.021406	-0.110498	0.230041	0.007337	-0.000582	-0.006044	0.011542	-0.143665	-0.072582	0.213363	0.016873	0.156193	0.170253	0.055010	0.078188	0.098077	0.029496	0.202818	0.099606	-0.091996	0.233483	0.031420	0.008454	-0.001319	0.228953	0.028993	0.117268	0.307767	-0.257370	0.106069	0.223753	-0.306551	0.120630	0.294395	-0.370334	-0.144666	0.249577	-0.303640	-0.150241	
